<svg width="1024" height="1024" viewBox="0 0 1024 1024" fill="none" xmlns="http://www.w3.org/2000/svg">
  <rect x="96" y="96" width="832" height="832" rx="188" fill="#FFD21F"/>
  <path d="M732 680L637 775L542 680H606V478H668V680H732Z" fill="#161616"/>
  <path d="M384 319C384 296.9 401.9 279 424 279H639C662.2 279 681 297.8 681 321V371H453V590C453 655.2 405.2 699 341 699C288.5 699 247 668.8 247 621C247 571.9 289.9 538 344 538C361.2 538 376.2 541.2 389 547.2V319H384Z" fill="#161616"/>
  <path d="M453 371H681V428H453V371Z" fill="#D71920"/>
  <path d="M389 606C379.2 594.9 363.1 589 344 589C318.7 589 301 601.7 301 621C301 638.9 316.7 648 341 648C371 648 389 631.9 389 606Z" fill="#FFD21F"/>
</svg>
